<?xml version="1.0" encoding="UTF-8"?>
<svg width="24px" height="24px" viewBox="0 0 24 24" version="1.1" xmlns="http://www.w3.org/2000/svg" xmlns:xlink="http://www.w3.org/1999/xlink">
    <title>手电筒未开启态</title>
    <defs>
        <path d="M16.4434873,1 C16.6799477,1 16.9149301,1.03727426 17.1397829,1.11045039 C18.3214235,1.49500381 18.9675903,2.76465493 18.5830369,3.94629555 L16.9480405,8.97024839 C16.7972903,9.43346753 16.5238863,9.8313637 16.1708163,10.13272 C16.2156243,10.2719706 16.2346874,10.4217218 16.2252306,10.5763204 L15.5944985,20.8873767 C15.5218848,22.0744496 14.537988,23 13.3486963,23 L10.6368642,23 C9.44497041,23 8.45986679,22.0705276 8.39066026,20.8806448 L7.78900871,10.5 C7.78900871,10.3881767 7.80369224,10.279783 7.83123637,10.1766416 C7.44640021,9.86700447 7.14932432,9.44418208 6.9927946,8.94787495 L5.40919227,3.92676376 C5.34013756,3.70781271 5.305,3.47958249 5.305,3.25 C5.305,2.00735931 6.31235931,1 7.555,1 Z M9.42558898,10.7498779 L9.30308247,10.749 L9.88812952,20.7935483 C9.91119837,21.1901759 10.2395662,21.5 10.6368642,21.5 L13.3486963,21.5 C13.7451269,21.5 14.0730925,21.1914832 14.0972971,20.7957922 L14.7110825,10.75 L9.45079409,10.75 C9.44238505,10.75 9.43398328,10.7499592 9.42558898,10.7498779 Z M12.0090825,12 C12.8375096,12 13.5090825,12.6715729 13.5090825,13.5 L13.5090825,15 C13.5090825,15.8284271 12.8375096,16.5 12.0090825,16.5 C11.1806553,16.5 10.5090825,15.8284271 10.5090825,15 L10.5090825,13.5 C10.5090825,12.6715729 11.1806553,12 12.0090825,12 Z M12.0090825,13.75 C11.5948689,13.75 11.2590825,14.0857864 11.2590825,14.5 L11.2590825,15 C11.2590825,15.4142136 11.5948689,15.75 12.0090825,15.75 C12.423296,15.75 12.7590825,15.4142136 12.7590825,15 L12.7590825,14.5 C12.7590825,14.0857864 12.423296,13.75 12.0090825,13.75 Z M16.4434873,2.5 L7.555,2.5 C7.14078644,2.5 6.805,2.83578644 6.805,3.25 C6.805,3.3265275 6.81671252,3.40260424 6.83973076,3.47558792 L8.42333308,8.4966991 C8.56475301,8.94509779 8.98062287,9.25 9.45079409,9.25 L14.4972096,9.25 C14.9637593,9.25 15.3772934,8.94969855 15.5216741,8.50605136 L17.1566705,3.48209852 C17.284855,3.08821831 17.069466,2.66500127 16.6755858,2.5368168 C16.6006349,2.51242475 16.5223074,2.5 16.4434873,2.5 Z" id="path-1"></path>
        <filter x="-52.3%" y="-22.7%" width="204.6%" height="163.6%" filterUnits="objectBoundingBox" id="filter-3">
            <feOffset dx="0" dy="2" in="SourceAlpha" result="shadowOffsetOuter1"></feOffset>
            <feGaussianBlur stdDeviation="2" in="shadowOffsetOuter1" result="shadowBlurOuter1"></feGaussianBlur>
            <feColorMatrix values="0 0 0 0 0   0 0 0 0 0   0 0 0 0 0  0 0 0 0.3 0" type="matrix" in="shadowBlurOuter1"></feColorMatrix>
        </filter>
    </defs>
    <g id="手电筒未开启态" stroke="none" stroke-width="1" fill="none" fill-rule="evenodd">
        <g id="编组">
            <rect id="矩形" x="0" y="0" width="24" height="24"></rect>
            <mask id="mask-2" fill="white">
                <use xlink:href="#path-1"></use>
            </mask>
            <g id="蒙版" fill-rule="nonzero" fill="#7C7C7C" fill-opacity="1">
                <use filter="url(#filter-3)" xlink:href="#path-1"></use>
            </g>
            <g id="Symbol/color-light/colorPrimary" mask="url(#mask-2)" fill="#FFFFFF">
                <rect id="color/#000000" x="0" y="0" width="24" height="24"></rect>
            </g>
        </g>
    </g>
</svg>